<svg width="512" height="322" fill="none" xmlns="http://www.w3.org/2000/svg"><path d="M220.268 101.57c-4.269-2.7-8.466 2.266-6.419 9.644 2.388 8.609 6.667 10.295 9.179 10.047l-2.76-19.691z" fill="#fff"/><path d="M220.268 101.57c-4.269-2.7-8.466 2.266-6.419 9.644 2.388 8.609 6.667 10.295 9.179 10.047" stroke="#2B1B9E" stroke-width="1.886" stroke-linecap="round" stroke-linejoin="round"/><path d="M284.999 102.201c5.168-4.139 9.365 1.635 7.318 9.013-2.388 8.609-7.132 10.347-9.644 10.088l2.326-19.101z" fill="#fff"/><path d="M258.038 151.393c-4.465-.083-8.827-.145-12.941-.197a15.494 15.494 0 0 0 6.202 1.573 34.043 34.043 0 0 0 6.739-1.376z" fill="#F5F4FE"/><path d="M194.469 155.231c4.279 8.278 26.193 16.277 60.16 18.543 7.236.476 30.711-2.297 45.131-6.923 12.476-4.004 16.601-9.912 16.601-9.912a23.23 23.23 0 0 0-13.056-5.753c-11.37-1.035-27.909.569-27.909.569v-12.221a33.313 33.313 0 0 1-17.376 11.858 34.029 34.029 0 0 1-6.73 1.377 15.498 15.498 0 0 1-6.202-1.573 41.1 41.1 0 0 1-11.577-8.433l.393 8.278v.238c-4.032.155-14.555-1.47-23.775-.673-8.321.755-16.167 3.663-15.66 4.625z" fill="#fff"/><path d="M278.113 93.396c-9.582-9.21-2.377-17.343-5.706-19.722a4.106 4.106 0 0 0-.423-.249c-2.347-1.097-6.916 20.27-17.987 20.147-2.336 0-5.478-8.05-5.478-8.05s-12.001 14.092-27.227 13.585c-.517 0-1.034-.082-1.479-.144 0 0 2.791 17.683 3.184 23.633.352 5.173 4.972 14.579 10.523 20.167 5.551 5.587 12.559 10.006 17.79 10.006 0 0 15.143-1.035 24.105-13.235a31.73 31.73 0 0 0 4.776-9.747 206.24 206.24 0 0 0 4.848-27.586l-.134.083a35.686 35.686 0 0 0-6.792-8.888z" fill="#fff"/><path d="M293.174 111.286a.771.771 0 0 0-.062.311c.011.279.042.124.062-.311zm6.1-39.413c.597-.6 1.127-1.262 1.581-1.976 1.354-2.204 6.978-16.432-4.527-21.833a12.683 12.683 0 0 0-13.211 1.542c-3.101-5.464-11.505-10.224-17.8-10.43-23.651-.776-26.369 8.878-35.466 7.936-25.284-2.649-19.888 10.606-23.351 12.344-4.537 2.287-9.809 5.94-9.995 10.69-.414 10.605 7.556 12.871 11.949 13.15h.806c-1.188 4.74 1.334 14.425 10.554 15.677.476.062.962.124 1.479.145 15.226.507 27.227-13.586 27.227-13.586s1.509 6.27 4.61 7.884a4.71 4.71 0 0 0 3.225.652c9.066-3.239 13.49-21.626 15.629-20.632.151.065.293.149.424.248 3.329 2.38-3.876 10.513 5.706 19.722a35.69 35.69 0 0 1 6.792 8.888l.134-.082c7.742-5.35 8.207 6.467 8.135 9.033.641-1.625 7.143.134 5.975-8.195-.135-1.035-4.797-4.408-4.921-5.422-.124-1.014.817-1.977 1.675-2.67a18.62 18.62 0 0 0 5.706-6.87c1.871-4.48.599-9.655-1.313-14.125a17.628 17.628 0 0 0-1.023-2.09z" fill="#A195F9"/><path d="M373.43 232.712s-11.826-17.642-24.385-36.216c-6.791-10.068-13.562-20.694-19.33-28.351a47.633 47.633 0 0 0-11.949-11.331c-.507-.372-8.27 7.368-21.377 11.331-15.009 4.522-33.533 5.742-40.758 5.67-49.183-.507-60.988-18.263-60.988-18.263s-7.452 3.239-9.685 4.791c-4.424 3.104-45.73 70.248-45.73 70.248l18.368 12.417 21.232 8.712 22.059-40.179s-1.468 10.493-1.127 14.145c.703 7.461 4.052 29.676 4.052 29.676l-.641 14.487c.083-1.263 106.925 0 106.925 0s-1.913-13.297-1.757-17.756c.258-7.461 2.067-18.76 2.801-25.796.269-2.722-.517-14.745-.517-14.745l24.374 41.389 16.612-8.06 21.821-12.169z" fill="#EFF8FE"/><path d="M171.489 260.143s3.649-8.785 3.649-9.251c0-.248-7.381-3.29-14.534-7.181-6.44-3.497-16.601-8.878-16.601-8.878s-15.164 28.797-15.505 33.733c-.91 14.765 2.067 15.883 13.438 17.135 18.017 1.987 42.557-1.563 52.066 1.893l-1.808-23.881c-7.681-.807-20.705-3.57-20.705-3.57z" fill="#fff"/><path d="M128.663 268.948c-4.445 11.765 6.802 16.329 10.833 16.939 15.671 2.349 46.516-1.035 54.692 1.645" stroke="#2B1B9E" stroke-width="1.886" stroke-linecap="round" stroke-linejoin="round"/><path d="M382.578 265.524c-.858-4.864-15.123-29.304-15.123-29.304s-28.499 15.656-28.426 16.121c.072.466 4.021 5.536 4.021 5.536l-25.016 8.547-1.54 23.209a40.27 40.27 0 0 0 8.063-3.932c6.119-4.067 20.674 0 34.308 1.035 4.548.331 9.065.703 13.593-.528 10.947-2.97 11.98-10.161 10.12-20.684z" fill="#fff"/><path d="M175.51 251.71c-3.825 5.898-3.484 7.336-5.262 8.743-4.445 3.529-10.616 1.273-7.05-1.562 1.964-1.573 5.252 0 7.639.786 7.05 2.349 19.072 3.839 21.088 3.653m191.376 3.818c1.148 5.526-.237 11.775-4.424 15.521a19.868 19.868 0 0 1-4.393 2.856c-6.398 3.187-17.955-.445-38.908-.248m-8.755-.766c-.31.507-11.671 5.515-17.573 6.602m52.057-35.233c-15.216-.983-35.259 10.068-43.88 10.585m21.604-14.124l3.856 6.281m-138.629-66.72c-.072 3.653-3.835 15.387-4.217 27.069-.466 14.083 3.917 31.042 2.894 37.902m103.927-64.971c0 2.628 3.732 15.759 4.135 27.452.465 14.082-3.814 30.7-2.791 37.519" stroke="#2B1B9E" stroke-width="1.886" stroke-linecap="round" stroke-linejoin="round"/><path d="M195.13 221.485l-16.477 30.525c-25.925-9.106-39.435-21.409-39.435-21.409s28.116-44.69 37.43-59.549c7.018-11.216 15.98-16.669 26.493-19.184 7.236-1.717 21.252-.155 26.08-1.034" stroke="#2B1B9E" stroke-width="1.886" stroke-linecap="round" stroke-linejoin="round"/><path d="M363.175 216.198c-3.648-3.777-18.678-23.861-30.741-44.794a45.416 45.416 0 0 0-11.722-13.058c-3.939-3.104-15.454-5.174-12.549-9.127 1.809-2.431 7.091-1.324 8.269 2.774 1.292 4.439-2.295 8.526-6.471 10.543a87.536 87.536 0 0 1-7.236 3.105c-40.138 15.334-90.788 6.115-104.402-7.14m137.109 94.792c24.86-10.668 34.287-18.708 34.287-18.708m-54.465-14.735l20.177 33.443m-193.123-15.769c-3.483 6.653-6.801 12.313-10.543 21.729m236.063-22.278l12.725 22.433M251.102 115.756c0 2.98-.651 4.294-.661 7.243 0 1.366-.166 3.104 1.085 3.684 1.034.434 2.502.062 3.773.29m-9.571 10.978c1.034 1.035 2.636 2.929 7.598 2.929 5.737 0 8.745-4.698 10.078-8.392-6.553 1.335-12.704 1.842-19.774.31" stroke="#2B1B9E" stroke-width="1.886" stroke-linecap="round" stroke-linejoin="round"/><path d="M219.411 98.766c2.729 9.25 1.251 17.849 5.479 30.235 3.101 9.023 13.169 23.995 28.271 23.178 14.255-.787 26.204-14.104 28.406-27.824 1.798-11.196 1.643-17.777 3.008-20.788a5.475 5.475 0 0 1 1.323-1.997c4.021-3.104 8.466 2.266 6.419 9.644-2.388 8.609-6.678 10.295-9.179 10.047m-22.226-20.891c2.533-1.635 4.91-2.07 6.926.124m-31.826.372c2.532-1.624 5.168-1.976 7.173.259m32.375 37.592c-.372 3.301.072 8.671.093 18.967m-41.45-13.4c-.155.859.207 7.584 0 15.521" stroke="#2B1B9E" stroke-width="1.886" stroke-linecap="round" stroke-linejoin="round"/><path d="M237.211 118.343c-.682-3.104-.197-7.409 1.033-8.837.207-.225.464-.398.75-.504.286-.106.593-.142.896-.106a1.928 1.928 0 0 1 1.455.983c.662.859.724 2.338.796 4.439.073 2.349 0 4.056-.806 5.525a2.059 2.059 0 0 1-1.612.756 2.637 2.637 0 0 1-2.512-2.256zm24.447-.093c-.682-3.104-.186-7.409 1.034-8.837a1.913 1.913 0 0 1 2.49-.302c.253.17.463.398.611.664.661.87.734 2.349.796 4.45.072 2.349 0 4.056-.807 5.525a1.975 1.975 0 0 1-1.612.745 2.616 2.616 0 0 1-2.512-2.245z" fill="#2B1B9E"/><path d="M191.615 162.061c7.712 5.246 10.503 14.672 12.012 22.764m104.515-3.063c1.323-3.394 4.289-14.176 10.946-18.884m-99.946-46.418c-5.985-1.035-9.459 3.394-10.658 7.605a9.437 9.437 0 0 0 .332 5.981 9.418 9.418 0 0 0 3.865 4.573c3.587 2.318 9.675 2.38 12.973-1.966m60.037-14.755c5.592-.61 8.869 3.622 10.027 7.688a9.435 9.435 0 0 1-4.218 10.534c-3.587 2.318-9.675 2.38-12.973-1.966m-55.343-35.17c7.67.123 11.081-2.319 15.412-4.688 4.331-2.37 7.649-6.209 10.605-10.151 2.295-3.104 4.497-6.374 5.097-10.14.155-.973 0-2.215-.879-2.556a2.066 2.066 0 0 0-1.985.714c-1.933 1.893-2.46 4.79-2.687 7.491-.269 3.353-.279 14.135 6.822 14.487 6.574.351 16.539-20.86 16.167-20.995m-75.231-3.001c-.414 10.606 7.556 12.872 11.949 13.151a15.09 15.09 0 0 0 12.146-5.722c.93-1.241 1.757-4.46-1.757-4.346-5.593.197-19.434 15.811.382 25.63m76.482 11.207a4.751 4.751 0 0 0 3.576-4.77 7.23 7.23 0 0 0-.932-3.074 7.231 7.231 0 0 0-2.169-2.369c-.816-.61-1.819-1.22-1.943-2.235-.124-1.014.817-1.976 1.675-2.67a18.628 18.628 0 0 0 5.706-6.87c1.871-4.48.599-9.654-1.313-14.124-.837-1.956-1.933-4.005-3.877-4.863-1.943-.86-4.796.362-4.723 2.483.072 1.925 2.522 3.042 4.362 2.452a10.27 10.27 0 0 0 4.796-4.139c1.354-2.204 6.977-16.431-4.528-21.832a12.68 12.68 0 0 0-13.21 1.541m-6.367 101.011h15.226m-56.16-26.727a10.61 10.61 0 0 1-7.507-3.113 10.632 10.632 0 0 1-3.109-7.514v-5.97a1.914 1.914 0 0 1 1.912-1.915h19.434a1.912 1.912 0 0 1 1.912 1.915v5.97c0 5.867-4.062 11.196-12.642 10.627zm30.38 0a10.604 10.604 0 0 1-10.605-10.627v-5.97a1.893 1.893 0 0 1 .553-1.353 1.911 1.911 0 0 1 1.349-.562h19.433a1.912 1.912 0 0 1 1.912 1.915v5.97c0 5.867-4.052 11.196-12.642 10.627zm-46.134-22.195l5.468 4.346m23.485 8.215h5.903m23.94-8.143l7.029-4.532M91.74 282.048h32.2m259.486 0h44.531" stroke="#2B1B9E" stroke-width="1.886" stroke-linecap="round" stroke-linejoin="round"/><path d="M48.346 241.176c9.81-76.974 114.336-47.39 103.017-107.819" stroke="#FE585A" stroke-width="6.286" stroke-linecap="round" stroke-linejoin="round"/><path d="M48.346 241.176c1.375 75.619 122.502 46.274 137.986 44.277 23.393-3.022 40.314-1.097 53.576 7.046" stroke="#FFB81E" stroke-width="6.286" stroke-linecap="round" stroke-linejoin="round"/><path d="M389.575 43.139s19.165-22.454 31.135-7.802c0 0 10.275 22.826 26.162 20.24" stroke="#A195F9" stroke-width="6.286" stroke-linecap="round" stroke-linejoin="round"/><path d="M482.929 43.138H358.411a2.895 2.895 0 0 0-2.894 2.898v117.597c0 1.6 1.295 2.897 2.894 2.897h124.518a2.896 2.896 0 0 0 2.894-2.897V46.036c0-1.6-1.296-2.898-2.894-2.898z" fill="#F5F4FE"/><path d="M475.495 134.795a2.216 2.216 0 0 0 .238-2.162c-4.445-10.348-19.041-50.578-23.889-56.776-2.15-2.763-5.354-3.394-8.827-3.694-2.44-.207-33.171-.28-36.913-.31a10.245 10.245 0 0 0-6.295 2.13c-5.169 4.802-25.688 44.143-31.879 55.804a3.867 3.867 0 0 0 .31 4.139l-3.897 6.488 16.053 9.654 3.649-6.064c-.362-.217 2.419-.424 3.68-2.276 4.465-6.571 9.127-24.058 11.071-26.251.165 11.878 0 15.521.299 25.971a4.038 4.038 0 0 0 2.398 3.57v6.747h43.963v-6.923h-.972a3.962 3.962 0 0 0 2.275-3.559c.062-6.208 0-15.521.351-27.441 2.791 5.867 5.572 22.764 9.985 28.455.452.39.98.683 1.551.859l3.349 6.839 16.828-8.277-3.328-6.923z" fill="#fff"/><path d="M370.721 131.588l-5.396 8.112c.285.376.635.699 1.034.952 3.349 2.183 9.303 5.867 14.813 9.147l4.941-9.768-15.392-8.443z" fill="#fff"/><path d="M355.454 146.198V46.036a2.908 2.908 0 0 1 .848-2.049 2.899 2.899 0 0 1 2.046-.849h120.249m7.473 8.134c-.228 3.27-.31 59.569-.31 59.569v52.772a2.897 2.897 0 0 1-2.895 2.897H358.347a2.882 2.882 0 0 1-2.046-.849 2.899 2.899 0 0 1-.848-2.048" stroke="#2B1B9E" stroke-width="1.886" stroke-linecap="round" stroke-linejoin="round"/><path d="M384.055 143.746l-3.68 6.322-16.053-9.675 3.442-5.908m107.73.952l3.277 6.477-16.725 8.081-3.556-7.139" stroke="#2B1B9E" stroke-width="1.886" stroke-linecap="round" stroke-linejoin="round"/><path d="M472.331 138.189a5.887 5.887 0 0 0 2.988-7.512c-5.365-13.555-19.733-49.408-23.879-54.706-2.15-2.763-5.468-3.27-8.941-3.57-2.439-.207-5.944-.093-6.429-.124-.652 3.414-2.771 9.809-11.733 9.757a11.146 11.146 0 0 1-8.683-3.57m34.569 44.897c1.984 6.478 3.917 12.417 5.096 15.697a5.882 5.882 0 0 0 5.688 3.915 5.894 5.894 0 0 0 2.374-.562" stroke="#2B1B9E" stroke-width="1.886" stroke-linecap="round" stroke-linejoin="round"/><path d="M380.313 142.328a6.019 6.019 0 0 0 7.02-.655 6.027 6.027 0 0 0 1.498-1.994c5.437-11.672 15.423-38.844 15.784-42.02.29-2.453-1.819-3.808-3.442-3.105-1.375.56-1.829 2.318-1.829 3.798 0 7.978.217 33.722.568 44.845a2.129 2.129 0 0 0 2.068 2.07c9.375.238 33.708-.166 42.236 0a2.142 2.142 0 0 0 2.171-2.07c.113-7.129 0-26.624.434-39.858" stroke="#2B1B9E" stroke-width="1.886" stroke-linecap="round" stroke-linejoin="round"/><path d="M436.505 72.276s-27.031-.124-30.773-.155a13.03 13.03 0 0 0-8.332 3.694c-4.837 4.688-22.255 39.424-29.005 52.523a6.03 6.03 0 0 0 2.067 7.802m74.973 8.951v6.674h-43.777v-6.353" stroke="#2B1B9E" stroke-width="1.886" stroke-linecap="round" stroke-linejoin="round"/><path d="M427.356 117.65c.631-.663 10.151-7.026 10.151-13.379a7.03 7.03 0 0 0-1.668-4.59 7.016 7.016 0 0 0-12.038 2.417 7.014 7.014 0 0 0-12.039-2.416 7.03 7.03 0 0 0-1.668 4.589c0 6.611 13.334 15.738 13.707 15.8" stroke="#FFB81E" stroke-width="1.886" stroke-linecap="round" stroke-linejoin="round"/><path d="M379.289 50.164a7.332 7.332 0 0 0-4.486-.796c-4.083.507-6.285 3.838-6.543 9.881h2.832c.124-3.052.776-5.07 1.995-6.156a4.281 4.281 0 0 1 3.267-.963 3.221 3.221 0 0 1 2.584 1.614 3.447 3.447 0 0 1 .103 3.208c-1.24 2.546-4.217 2.939-6.967 2.99h-5.003c-1.778.176-3.721.58-4.662 2.246a4.5 4.5 0 0 0 .445 4.925 4.337 4.337 0 0 0 3.308 1.48c.547 0 1.089-.099 1.602-.29 1.033-.403 2.946-1.583 3.266-4.977h-2.863c-.114.797-.538 2.628-2.202 2.432a1.473 1.473 0 0 1-1.137-.87 1.35 1.35 0 0 1 .093-1.345c.372-.548 1.292-.848 2.801-.9h4.487c1.956.051 3.901-.301 5.716-1.035a7.642 7.642 0 0 0 3.504-3.176 6.126 6.126 0 0 0 .589-4.677 5.764 5.764 0 0 0-2.76-3.59" fill="#2B1B9E"/><path d="M420.711 35.337s10.275 22.826 26.163 20.24" stroke="#A195F9" stroke-width="6.286" stroke-linecap="round" stroke-linejoin="round"/><path d="M401.565 177.168c-19.268-1.822-29.863 11.454-28.137 23.674 1.313 9.313 8.322 11.765 13.139 11.082 15.856-2.266 12.9-22.95-18.421-47.152-10.76-8.278-17.82-13.566-21.139-20.209-6.688-13.4.486-24.275 7.36-24.461" stroke="#A195F9" stroke-width="6.286" stroke-linejoin="round"/><path d="M282.93 279.161c52.573-74.501 116.062-14.765 154.711-26.903 31.941-10.078 28.23-72.338-36.075-75.049" stroke="#67BAF8" stroke-width="6.286" stroke-linecap="round" stroke-linejoin="round"/><path d="M323.244 212.069H185.681a5.233 5.233 0 0 0-4.163 2.054 5.252 5.252 0 0 0-.902 4.558l7.929 45.104 4.021 22.826 1.426 8.113a5.248 5.248 0 0 0 5.065 3.89h107.431c3.401 0 10.42-3.187 9.613-6.498l.393-2.483 3.877-24.078 7.969-49.481a5.251 5.251 0 0 0-5.096-4.005z" fill="#fff"/><path d="M301.206 298.573H199.057a5.248 5.248 0 0 1-5.065-3.891l-13.376-76.042a5.254 5.254 0 0 1 2.744-6.072 5.233 5.233 0 0 1 2.321-.54h137.563a4.938 4.938 0 0 1 1.737.331 5.175 5.175 0 0 1 2.997 5.898l-11.877 73.859c-1.56 4.791-4.703 6.561-8.104 6.561M191.15 218.443s32.334-.435 35.838-.641m74.972.134h16.983" stroke="#2B1B9E" stroke-width="1.886" stroke-linecap="round" stroke-linejoin="round"/><path d="M253.75 250.51a7.82 7.82 0 0 1 4.937 1.756 7.835 7.835 0 0 1-1.817 13.259 7.824 7.824 0 0 1-9.51-2.66 7.837 7.837 0 0 1 .663-9.862" stroke="#2B1B9E" stroke-width="1.886" stroke-linecap="round" stroke-linejoin="round"/><path d="M39.052 106.858c-20.177 2.359-18.668 29.334 11.453 35.615" stroke="#FE585A" stroke-width="6.286" stroke-linecap="round" stroke-linejoin="round"/><path d="M155.902 43.646H41.948a2.896 2.896 0 0 0-2.894 2.897v108.533c0 1.6 1.295 2.897 2.894 2.897h113.954a2.896 2.896 0 0 0 2.894-2.897V46.543c0-1.6-1.296-2.897-2.894-2.897z" fill="#F5F4FE"/><path d="M159.043 51.768c-.237 3.27-.31 59.57-.31 59.57v43.738a2.907 2.907 0 0 1-2.894 2.897H41.886a2.894 2.894 0 0 1-2.895-2.897V46.543a2.899 2.899 0 0 1 2.895-2.897h110.418" stroke="#2B1B9E" stroke-width="1.886" stroke-linecap="round" stroke-linejoin="round"/><path d="M84.773 141.604c8.683 0 15.722-7.046 15.722-15.739 0-8.692-7.039-15.738-15.722-15.738s-15.722 7.046-15.722 15.738c0 8.693 7.039 15.739 15.722 15.739z" fill="#FFB41E"/><path d="M111.153 142.473c8.683 0 15.722-7.046 15.722-15.738s-7.039-15.739-15.722-15.739-15.722 7.047-15.722 15.739 7.039 15.738 15.722 15.738z" fill="#FFB41E"/><path d="M111.153 142.473c8.683 0 15.722-7.046 15.722-15.738s-7.039-15.739-15.722-15.739-15.722 7.047-15.722 15.739 7.039 15.738 15.722 15.738z" stroke="#2B1B9E" stroke-width="1.886" stroke-linecap="round" stroke-linejoin="round"/><path d="M101.974 74.408c7.319 8.206 8.611 20.87 6.843 29.738-.31 1.532 10.337 3.839 10.657 1.314.796-6.58.786-9.064-1.571-19.825-1.829-8.34-5.726-14.859-13.996-17.28-4.972-1.459-14.296-2.763-21.79 5.287-13.541 14.56-8.797 32.16-8.27 32.532l9.438-1.934s0-12.117 1.654-16.184c7.06-17.57 17.035-13.648 17.035-13.648z" fill="#FFB41E"/><path d="M103.906 68.355c-4.972-1.459-14.296-2.763-21.79 5.287a35.765 35.765 0 0 0-8.817 30.877 2.272 2.272 0 0 0 1.805 1.788c.295.057.598.054.892-.008l5.23-1.097a2.273 2.273 0 0 0 1.8-2.411c-.57-6.56-1.251-27.09 17.644-28.238 0 0 8.27 2.07 6.544-1.51-1.489-2.97-9.17 0-6.202 2.524 7.091 5.857 8.734 17.746 8.145 27.938-.217 3.704 9.923 4.646 10.089 1.428a73.336 73.336 0 0 0-1.385-19.267 27.282 27.282 0 0 0-4.807-11.154m-30.359 43.79c-4.579 1.334-6.657 7.077-4.724 10.864 1.933 3.787 5.251 5.174 9.304 4.47m24.695 4.15a10.341 10.341 0 0 1-9.55-6.388 10.358 10.358 0 0 1 2.24-11.276 10.336 10.336 0 0 1 11.265-2.243 10.352 10.352 0 0 1 6.382 9.559" stroke="#2B1B9E" stroke-width="1.886" stroke-linecap="round" stroke-linejoin="round"/><path d="M92.97 139.296a15.709 15.709 0 0 1-21.648-5.29 15.75 15.75 0 0 1 5.38-21.647 15.71 15.71 0 0 1 15.76-.224m18.525-5.846l-.568 3.963m7.04-3.343s.134 3.467-.496 4.667m-41.256-4.884s.755 4.377 1.571 4.822m4.508-6.24c.062.187-.052 4.057 1.416 4.771m4.662 7.636s3.897-.445 6.347 4.718" stroke="#2B1B9E" stroke-width="1.886" stroke-linecap="round" stroke-linejoin="round"/><path d="M62.827 52.813a7.28 7.28 0 0 0-4.496-.807c-4.135.518-6.275 3.84-6.533 9.892h2.853c.124-3.104.775-5.07 1.995-6.208a4.266 4.266 0 0 1 3.308-.91 3.222 3.222 0 0 1 2.543 1.665 3.427 3.427 0 0 1 .103 3.198c-1.24 2.555-4.217 2.949-6.977 3h-4.487l-.485.01c-1.778.177-3.722.57-4.662 2.236a4.515 4.515 0 0 0 .444 4.935 4.373 4.373 0 0 0 3.298 1.48c.55 0 1.096-.098 1.612-.29 1.034-.403 2.946-1.593 3.267-4.977h-2.926c-.113.797-.537 2.618-2.201 2.421a1.487 1.487 0 0 1-1.137-.858 1.356 1.356 0 0 1 .093-1.345c.372-.56 1.292-.849 2.8-.9h4.487c1.956.045 3.9-.307 5.716-1.035a7.745 7.745 0 0 0 3.525-3.198 6.214 6.214 0 0 0 .62-4.677 5.765 5.765 0 0 0-2.76-3.59" fill="#2B1B9E"/><path d="M25.77 122.379c1.209 8.05 9.137 16.845 24.736 20.094" stroke="#FE585A" stroke-width="6.286" stroke-linecap="round" stroke-linejoin="round"/></svg>